<svg width="29" height="29" viewBox="0 0 29 29" fill="none" xmlns="http://www.w3.org/2000/svg">
<path d="M5.75646 11.8078V16.0578C5.75645 16.2782 5.70503 16.4955 5.6063 16.6925L3.80146 20.3078H24.7171L22.9095 16.6925C22.8097 16.4957 22.7574 16.2784 22.7565 16.0578V11.8078C22.7565 9.55348 21.8609 7.39147 20.2669 5.79741C18.6728 4.20335 16.5108 3.30782 14.2565 3.30782C12.0021 3.30782 9.84011 4.20335 8.24606 5.79741C6.652 7.39147 5.75646 9.55348 5.75646 11.8078ZM8.5898 23.1412H1.50646C1.26488 23.1411 1.02731 23.0794 0.816341 22.9617C0.605367 22.844 0.427995 22.6743 0.301082 22.4687C0.174169 22.2632 0.101931 22.0286 0.0912335 21.7872C0.0805361 21.5459 0.131734 21.3058 0.239963 21.0898L2.92313 15.7235V11.8078C2.92313 8.80203 4.11717 5.91936 6.24259 3.79394C8.368 1.66853 11.2507 0.474487 14.2565 0.474487C17.2622 0.474487 20.1449 1.66853 22.2703 3.79394C24.3958 5.91936 25.5898 8.80203 25.5898 11.8078V15.7235L28.273 21.0898C28.3812 21.3058 28.4324 21.5459 28.4217 21.7872C28.411 22.0286 28.3388 22.2632 28.2118 22.4687C28.0849 22.6743 27.9076 22.844 27.6966 22.9617C27.4856 23.0794 27.248 23.1411 27.0065 23.1412H19.9231C19.9231 24.644 19.3261 26.0854 18.2634 27.1481C17.2007 28.2108 15.7594 28.8078 14.2565 28.8078C12.7536 28.8078 11.3122 28.2108 10.2495 27.1481C9.18682 26.0854 8.5898 24.644 8.5898 23.1412ZM17.0898 23.1412H11.4231C11.4231 23.8926 11.7216 24.6133 12.253 25.1446C12.7843 25.676 13.505 25.9745 14.2565 25.9745C15.0079 25.9745 15.7286 25.676 16.2599 25.1446C16.7913 24.6133 17.0898 23.8926 17.0898 23.1412Z" fill="#3E5D40"/>
</svg>
