<svg width="27" height="29" viewBox="0 0 27 29" fill="none" xmlns="http://www.w3.org/2000/svg">
<path d="M26.525 0.58075L24.825 1.14742C21.9115 2.15969 18.8003 2.47032 15.7441 2.05408C12.5328 1.55572 9.24577 1.99857 6.2808 3.32908C4.70897 3.99838 3.32953 5.05021 2.26805 6.38881C1.20657 7.72741 0.496781 9.31026 0.203295 10.9932C-0.0952424 12.6117 -0.0647038 14.2738 0.293088 15.8802C0.650881 17.4866 1.3286 19.0045 2.2858 20.3433C2.2008 20.6408 2.1158 20.9383 2.04496 21.2358C1.46957 23.6824 1.18427 26.1882 1.19496 28.7016H4.0283C4.16292 26.6445 4.44222 24.5994 4.86413 22.5816C6.82966 23.643 9.03388 24.1843 11.2675 24.1541C13.3506 24.1527 15.4124 23.7336 17.3308 22.9216C28.1116 18.3174 26.695 3.00325 26.695 2.36575L26.525 0.58075ZM16.2258 20.3149C12.5283 21.8874 8.1083 21.6182 5.62913 19.6774C6.04825 18.2764 6.62323 16.9269 7.3433 15.6541C7.90345 14.7383 8.56391 13.8878 9.31246 13.1183C10.0776 12.3408 10.9394 11.6647 11.8766 11.1066C13.8133 9.94853 15.9612 9.18763 18.195 8.86825V7.45158C15.6247 7.36097 13.0699 7.88552 10.7433 8.98158C8.36469 10.1438 6.34709 11.9312 4.90663 14.1524C4.3725 15.0009 3.89909 15.8862 3.48996 16.8016C2.83337 15.1219 2.64725 13.295 2.95163 11.5174C3.15106 10.2729 3.66407 9.0997 4.44232 8.1083C5.22056 7.1169 6.23842 6.33998 7.39996 5.85075C9.0933 5.05771 10.9418 4.65123 12.8116 4.66075C13.69 4.66075 14.5541 4.74575 15.4608 4.81658C18.3003 5.18294 21.1832 5.01476 23.9608 4.32075C23.8616 8.23075 23.1533 17.3683 16.2258 20.3149Z" fill="#3E5D40"/>
</svg>
