<svg width="30" height="29" viewBox="0 0 30 29" fill="none" xmlns="http://www.w3.org/2000/svg">
<path d="M14.923 0C22.7473 0 29.0897 6.34242 29.0897 14.1667C29.0897 21.9909 22.7473 28.3333 14.923 28.3333C7.09876 28.3333 0.756348 21.9909 0.756348 14.1667C0.756348 6.34242 7.09876 0 14.923 0ZM14.923 2.83333C11.9172 2.83333 9.03455 4.02738 6.90914 6.15279C4.78373 8.2782 3.58968 11.1609 3.58968 14.1667C3.58968 17.1725 4.78373 20.0551 6.90914 22.1805C9.03455 24.306 11.9172 25.5 14.923 25.5C17.9288 25.5 20.8115 24.306 22.9369 22.1805C25.0623 20.0551 26.2563 17.1725 26.2563 14.1667C26.2563 11.1609 25.0623 8.2782 22.9369 6.15279C20.8115 4.02738 17.9288 2.83333 14.923 2.83333ZM14.923 5.66667C15.27 5.66671 15.6049 5.7941 15.8642 6.02468C16.1235 6.25526 16.2892 6.57298 16.3298 6.91758L16.3397 7.08333V13.5802L20.1746 17.4151C20.4287 17.67 20.5762 18.0121 20.5872 18.3719C20.5982 18.7316 20.4718 19.0821 20.2337 19.3521C19.9957 19.622 19.6638 19.7913 19.3055 19.8254C18.9472 19.8595 18.5893 19.756 18.3046 19.5358L18.1714 19.4183L13.9214 15.1683C13.7013 14.9479 13.5598 14.6611 13.5191 14.3523L13.5063 14.1667V7.08333C13.5063 6.70761 13.6556 6.34728 13.9213 6.0816C14.187 5.81592 14.5473 5.66667 14.923 5.66667Z" fill="#3E5D40"/>
</svg>
