<svg width="26" height="26" viewBox="0 0 26 26" fill="none" xmlns="http://www.w3.org/2000/svg">
<path fill-rule="evenodd" clip-rule="evenodd" d="M21.3125 21.9573C21.9073 21.4245 22.2812 20.6514 22.2812 19.7912V11.0279C22.2814 10.5827 22.1792 10.1435 21.9827 9.74406C21.7862 9.34464 21.5005 8.99571 21.1478 8.72417L14.3666 3.50842C13.8584 3.11721 13.2351 2.90508 12.5938 2.90508C11.9524 2.90508 11.3291 3.11721 10.8209 3.50842L4.03969 8.72417C3.68669 8.9959 3.40089 9.34515 3.20436 9.74493C3.00783 10.1447 2.90583 10.5843 2.90625 11.0298V19.7912C2.90523 20.172 2.97926 20.5492 3.1241 20.9014C3.26895 21.2536 3.48177 21.5738 3.7504 21.8437C4.01904 22.1136 4.33823 22.3279 4.68972 22.4744C5.04122 22.6209 5.41814 22.6967 5.79894 22.6974H6.78125V15.9162C6.78125 14.8885 7.18951 13.9028 7.91621 13.1761C8.64291 12.4494 9.62854 12.0412 10.6562 12.0412H14.5312C15.559 12.0412 16.5446 12.4494 17.2713 13.1761C17.998 13.9028 18.4062 14.8885 18.4062 15.9162V22.6974H19.3886C20.1267 22.6935 20.8029 22.4145 21.3125 21.9573ZM25.1875 19.7912C25.1875 21.3327 24.5751 22.8112 23.4851 23.9012C22.395 24.9913 20.9166 25.6037 19.375 25.6037H5.8125C4.27093 25.6037 2.7925 24.9913 1.70244 23.9012C0.612387 22.8112 0 21.3327 0 19.7912V11.0279C6.05905e-05 10.1379 0.204483 9.25982 0.597508 8.46134C0.990534 7.66286 1.56167 6.96529 2.26688 6.42242L9.04813 1.20667C10.0645 0.424257 11.3111 0 12.5938 0C13.8764 0 15.123 0.424257 16.1394 1.20667L22.9206 6.42242C23.6261 6.96549 24.1974 7.66337 24.5904 8.46221C24.9835 9.26105 25.1877 10.1395 25.1875 11.0298V19.7912ZM15.5 15.9162C15.5 15.6592 15.3979 15.4128 15.2163 15.2312C15.0346 15.0495 14.7882 14.9474 14.5312 14.9474H10.6562C10.3993 14.9474 10.1529 15.0495 9.97124 15.2312C9.78957 15.4128 9.6875 15.6592 9.6875 15.9162V22.6974H15.5V15.9162Z" fill="#3E5D40"/>
</svg>
